<?xml version="1.0" encoding="UTF-8" standalone="no"?>
<!-- Created with Inkscape (http://www.inkscape.org/) -->

<svg
   xml:space="preserve"
   id="svg5"
   version="1.1"
   viewBox="0 0 67.09285 70.629295"
   height="70.629295mm"
   width="67.09285mm"
   sodipodi:docname="contoured.svg"
   inkscape:version="1.2.2 (732a01da63, 2022-12-09)"
   xmlns:inkscape="http://www.inkscape.org/namespaces/inkscape"
   xmlns:sodipodi="http://sodipodi.sourceforge.net/DTD/sodipodi-0.dtd"
   xmlns="http://www.w3.org/2000/svg"
   xmlns:svg="http://www.w3.org/2000/svg"><sodipodi:namedview
     id="namedview7"
     pagecolor="#ffffff"
     bordercolor="#000000"
     borderopacity="0.25"
     inkscape:showpageshadow="2"
     inkscape:pageopacity="0.0"
     inkscape:pagecheckerboard="0"
     inkscape:deskcolor="#d1d1d1"
     inkscape:document-units="mm"
     showgrid="false"
     inkscape:zoom="2"
     inkscape:cx="-108.75"
     inkscape:cy="77"
     inkscape:window-width="1920"
     inkscape:window-height="1129"
     inkscape:window-x="1912"
     inkscape:window-y="-8"
     inkscape:window-maximized="1"
     inkscape:current-layer="layer1"><inkscape:grid
       type="xygrid"
       id="grid132"
       originx="-276.24914"
       originy="-227.78672" /></sodipodi:namedview><defs
     id="defs2" /><g
     inkscape:label="Ebene 1"
     inkscape:groupmode="layer"
     id="layer1"
     transform="translate(-122.17578,-77.031247)"><path
       id="path318-2"
       style="fill:#000000;stroke-width:0.182417"
       d="m 165.81641,77.078125 c -2.11472,0.777442 -4.27164,1.108143 -6.50977,1.25 -2.34801,0.125977 -4.70125,0.04105 -7.04897,0.0398 -2.45037,-0.137074 -4.81972,-0.958709 -7.23444,-1.230251 -5.51014,1.593149 -11.21353,3.24042 -15.7736,6.880061 -2.49075,1.839162 -5.30473,3.420267 -7.07385,6.046715 2.18037,3.837545 4.78303,7.412265 7.11861,11.1496 0.41472,1.08815 1.6866,1.75737 2.79282,1.28995 1.75001,-0.60602 3.02975,-2.06618 4.72724,-2.775487 0.71597,3.712917 0.93392,7.454327 1.30213,11.213977 0.27079,8.52627 -1.59728,16.94159 -2.33029,25.40882 -0.28959,2.79501 -0.55787,5.62947 -0.1359,8.42603 5.16185,1.97155 10.72108,2.47906 16.18672,2.87427 5.17425,0.0148 10.3912,0.0962 15.51086,-0.74992 3.04917,-0.63943 6.59952,-0.57452 9.15398,-2.71028 -0.10716,-8.43988 -1.71854,-16.78284 -2.51743,-25.14627 -0.52557,-3.64604 -0.40166,-7.5515 -0.0209,-11.29044 0.18667,-2.08224 0.49904,-4.15906 0.70828,-6.23322 -0.0524,-0.51108 -0.26022,-1.17212 0.0977,-1.595702 1.11509,0.02837 2.01839,0.862312 2.94727,1.400392 1.0378,1.07955 2.86403,1.8166 4.18945,0.80469 0.83275,-0.61119 1.17345,-1.63249 1.45422,-2.569937 1.92586,-2.739399 3.76887,-5.539324 5.62575,-8.323589 0.71719,-1.211359 -0.0407,-2.648847 -1.05653,-3.409212 -1.49516,-1.247137 -3.34898,-2.013824 -4.72311,-3.408245 -1.9167,-1.465258 -4.08338,-2.573479 -6.11726,-3.847778 -3.67909,-1.27513 -7.28276,-2.859266 -11.13815,-3.540852 l -0.0944,0.03285 z m -0.32227,1.603516 c 0.40083,0.321892 0.0932,1.022247 0.0256,1.456108 -0.39206,1.294605 -1.09555,2.48843 -1.91174,3.556952 -1.69849,1.866032 -4.0708,3.200227 -6.58774,3.514779 -4.67035,0.528237 -9.58667,-2.619163 -10.68823,-7.262214 -0.0792,-0.305535 -0.52504,-0.921916 -0.19726,-1.09961 1.53346,0.143818 2.95473,0.921299 4.52163,0.892162 4.48886,0.382862 9.10005,0.547994 13.49399,-0.599193 0.41754,-0.210645 0.85975,-0.481548 1.34375,-0.458984 z m -21.25,0.238281 c 0.75909,0.961163 0.80459,2.293715 1.28706,3.400734 0.33942,1.078653 1.16722,1.873225 1.83124,2.753663 4.24301,4.859184 12.76012,4.952237 17.01842,0.0624 0.47158,-0.614744 1.23077,-0.984735 1.51758,-1.75586 0.69686,-1.330472 0.67495,-2.935833 1.46679,-4.214843 0.40783,-0.398531 1.2082,0.0219 0.82015,0.604929 -0.6017,3.711485 -3.1905,6.900472 -6.42561,8.637258 -2.51516,1.374379 -5.53061,1.783994 -8.33416,1.23703 -4.90681,-1.004758 -9.10079,-5.144846 -9.89827,-10.129608 0.19921,-0.224526 0.41385,-0.52061 0.7168,-0.595703 z M 170.76172,80 c 3.60315,1.104939 7.21944,2.441215 10.2013,4.814006 2.32925,1.677002 4.87266,3.153114 6.75182,5.365682 -1.87906,3.324953 -4.20947,6.371048 -6.15593,9.650406 -0.26022,0.843316 -1.2123,1.289766 -2.01278,0.893056 -2.12985,-0.806648 -3.7704,-2.683047 -6.0891,-3.033697 -0.50478,4.581317 -1.06242,9.162767 -1.35882,13.761687 -0.12198,8.67306 1.71151,17.20202 2.45649,25.81156 0.22518,2.10249 0.51375,4.242 0.14842,6.38964 -3.82851,1.29799 -7.86402,1.91495 -11.88564,2.19532 -5.90824,0.28758 -11.8531,0.45382 -17.70369,-0.42496 -2.73103,-0.56762 -5.72075,-0.50685 -8.14895,-2.0477 0.0895,-8.19917 1.70562,-16.33723 2.45261,-24.51236 0.93396,-6.67287 -0.28682,-13.36883 -1.02683,-19.995452 -0.6124,-0.993507 -1.95577,-0.89153 -2.83267,-0.339363 -1.47609,0.765291 -2.67631,2.013035 -4.25131,2.591315 -2.17254,-2.721391 -3.78141,-5.775527 -5.82031,-8.605468 -0.84814,-0.60193 -1.598,-1.783256 -0.91903,-2.780124 1.21268,-1.838477 3.38248,-2.63093 5.02841,-4.000357 2.20896,-1.663115 4.43599,-3.46313 7.16224,-4.18488 1.6009,-0.538604 3.08908,-1.611567 4.82205,-1.634382 1.03723,0.09373 0.98093,1.374335 1.05477,2.140759 2.06796,6.464941 9.42705,10.46894 16.00299,9.121822 3.71261,-0.738593 7.09286,-3.005576 9.10185,-6.225955 1.03505,-1.583902 1.76502,-3.367271 2.15492,-5.218133 0.28906,0.08919 0.57813,0.178385 0.86719,0.267578 z" /></g></svg>
