<?xml version="1.0" encoding="UTF-8" standalone="no"?>
<!-- Created with Inkscape (http://www.inkscape.org/) -->

<svg
   xml:space="preserve"
   id="svg5"
   version="1.1"
   viewBox="0 0 78.465897 75.433372"
   height="75.433372mm"
   width="78.465897mm"
   sodipodi:docname="regular.svg"
   inkscape:version="1.2.2 (732a01da63, 2022-12-09)"
   xmlns:inkscape="http://www.inkscape.org/namespaces/inkscape"
   xmlns:sodipodi="http://sodipodi.sourceforge.net/DTD/sodipodi-0.dtd"
   xmlns="http://www.w3.org/2000/svg"
   xmlns:svg="http://www.w3.org/2000/svg"><sodipodi:namedview
     id="namedview7"
     pagecolor="#ffffff"
     bordercolor="#000000"
     borderopacity="0.25"
     inkscape:showpageshadow="2"
     inkscape:pageopacity="0.0"
     inkscape:pagecheckerboard="0"
     inkscape:deskcolor="#d1d1d1"
     inkscape:document-units="mm"
     showgrid="false"
     inkscape:zoom="2"
     inkscape:cx="237.25"
     inkscape:cy="93.5"
     inkscape:window-width="1920"
     inkscape:window-height="1129"
     inkscape:window-x="1912"
     inkscape:window-y="-8"
     inkscape:window-maximized="1"
     inkscape:current-layer="layer1"><inkscape:grid
       type="xygrid"
       id="grid132"
       originx="-184.66515"
       originy="-223.38443" /></sodipodi:namedview><defs
     id="defs2" /><g
     inkscape:label="Ebene 1"
     inkscape:groupmode="layer"
     id="layer1"
     transform="translate(-30.591797,-72.628956)"><path
       id="path318"
       style="fill:#000000;stroke-width:0.182417"
       d="m 58.189453,72.683594 c -4.412447,1.646733 -8.523117,3.982147 -12.852746,5.812074 -3.451138,1.19005 -5.76278,4.244014 -7.590893,7.246109 -2.527726,4.019307 -5.185284,7.983659 -7.154017,12.31877 3.838423,2.717063 8.002797,4.970953 11.908203,7.539063 0.567617,0.86337 1.717739,1.73967 2.748047,1.08398 1.340728,-0.87086 1.585549,-2.66366 2.734375,-3.69531 0.320244,0.13583 0.0073,1.00666 0.113124,1.38826 -0.0644,13.96297 -0.617725,27.91831 -1.029674,41.8731 -0.153095,1.01249 0.961063,1.48053 1.797043,1.49702 3.959306,0.27301 7.937202,0.25569 11.90571,0.30946 7.044519,0.0277 14.090377,-0.0468 21.134091,-0.0376 3.238911,-0.20619 6.570977,0.40193 9.730482,-0.54874 0.611752,0.14077 0.741313,-0.36428 1.168831,-0.58532 -0.352894,-13.79581 -0.73249,-27.59447 -1.147732,-41.38636 -0.206463,-0.8317 -0.381253,-1.99321 0.337891,-2.61133 0.900773,0.37646 0.927243,1.52515 1.30155,2.30624 0.415452,1.13813 1.788661,1.63657 2.870872,1.14694 2.192838,-0.82804 3.788832,-2.70806 5.92336,-3.63797 2.06866,-1.55416 4.60113,-2.43811 6.51962,-4.194513 0.34792,-0.34564 0.65756,-0.819724 0.2717,-1.25971 -2.01328,-4.595284 -4.97742,-8.674867 -7.58241,-12.933254 -1.80295,-3.438075 -5.366064,-5.417499 -8.842647,-6.809359 -3.888843,-1.450694 -7.394512,-3.844013 -11.444467,-4.870328 -3.662029,0.952712 -7.42445,1.778552 -11.18968,1.605337 -3.886614,0.289286 -7.655125,-0.998549 -11.490008,-1.611197 l -0.0932,0.03624 z m 0.04492,1.933594 c 1.795966,3.718782 5.181644,6.973806 9.397227,7.563313 2.272241,0.404882 4.660512,0.304748 6.817716,-0.567474 3.231639,-1.239342 5.93901,-3.838886 7.22451,-7.062246 0.56483,-0.08324 1.486326,0.08847 1.304688,0.859375 -0.40131,1.960254 -1.920911,3.393602 -3.115633,4.900789 -1.831899,1.832113 -4.375442,2.664328 -6.762599,3.498533 -4.201439,0.71118 -8.883973,0.006 -12.143812,-2.915748 -1.524503,-1.455631 -3.211064,-2.939978 -3.97405,-4.958183 -0.352072,-0.797967 0.307682,-1.552831 1.089844,-1.679688 0.05404,0.120443 0.108073,0.240886 0.162109,0.361329 z m 21.423828,0.191406 c -0.460685,1.736025 -1.94027,2.97259 -3.312112,4.023868 -3.103591,2.306358 -7.483496,2.703484 -10.962854,1.016511 -2.282671,-1.061088 -4.224122,-2.902242 -5.281675,-5.198582 6.411728,1.440528 13.176327,1.610285 19.572266,-0.0098 l -0.0093,0.09957 z m 6.630859,1.695312 c 3.708071,1.682608 7.565761,3.144059 11.007604,5.332493 4.027186,4.710338 6.987426,10.234837 10.080286,15.605007 -3.47057,2.447039 -7.20429,4.468974 -10.73828,6.822264 -0.330193,0.47759 -1.060118,1.15139 -1.56836,0.4961 -1.043656,-1.06127 -1.369217,-2.7788 -2.738281,-3.51563 -0.906697,-0.39536 -1.940134,0.43979 -2.177734,1.25391 0.09837,14.34593 0.826934,28.67809 1.095263,43.01989 0.114121,0.69064 -0.07319,1.09835 -0.828809,0.90685 -10.931002,0.11603 -21.866025,0.0843 -32.795376,-0.0146 -2.69338,-0.34146 -5.549788,0.51084 -8.120783,-0.60974 -0.411926,-0.22853 -1.017162,-0.46623 -0.805158,-1.04822 0.418947,-12.6196 0.718611,-25.24272 1.097441,-37.86353 0.412938,-1.6349 0.292613,-3.47608 -0.511719,-4.97461 -0.431778,-0.88645 -1.680616,-1.02495 -2.308594,-0.27148 -0.724525,0.63397 -0.977379,1.56159 -1.365234,2.39844 -0.422588,0.92708 -1.572095,0.77593 -2.292439,0.32321 -1.939648,-1.04618 -3.510213,-2.70478 -5.553102,-3.56584 -1.546943,-1.103607 -3.533026,-1.692677 -4.711099,-3.251515 -0.635317,-0.977219 0.242195,-2.00345 0.90039,-2.6875 1.70263,-3.005999 3.654324,-5.863295 5.42459,-8.826323 1.937637,-3.551464 5.411389,-6.101787 9.264863,-7.224458 2.021475,-0.774155 3.715851,-2.324914 5.865235,-2.759766 1.158731,-0.23644 1.811267,0.981046 1.983051,1.940904 0.711959,1.557852 1.953957,2.854425 3.243321,3.973317 5.164764,4.334327 13.225904,5.041241 18.859565,1.195154 2.858697,-1.452158 4.172075,-4.557079 6.132568,-6.911471 0.343728,-0.651163 0.986313,0.13073 1.479705,0.22051 z" /></g></svg>
